<svg xmlns="http://www.w3.org/2000/svg"
    viewBox="0 0 1000 866"
    xmlns:cc="http://creativecommons.org/ns#"
    xmlns:xlink="http://www.w3.org/1999/xlink"
>
<metadata typeof="cc:Work">
    This work, from
    <a property="cc:attributionName" rel="cc:attributionURL"
        href="https://github.com/akdb/pso-icons"
    >
    pso-icons</a>, is licensed under a
    <a rel="license" href="https://creativecommons.org/licenses/by-sa/4.0/">
        Creative Commons Attribution-ShareAlike 4.0 International License
    </a>.
</metadata>
<style>
* {
    fill: #ff7633;
}
</style>

<!--Outmost tail-->
<path d="
    m   607,92
        119,0
        0,86
        -119,0
    a   116,116 0 0 0 0,-86
    z"
/>

<!--NW trail-->
<path id="w" d="
    m   102,433
        192,-341
        98,0
    a   116,116 0 0 0 0,86
    l    -46,0
        -147,255
        20,35
    a   116,116 0 0 0 -70.7,45.5
    z"
/>

<!--S trail-->
<use xlink:href="#w"
    transform="rotate(-120, 500, 433)"
/>

<!--Center trail-->
<path d="
    m   793,433
        -20,34
    a   116,116 0 0 1 75,42
    l   44,-76
        -94,-163
        -371,0
        -82,140
        75,43
        56,-97
        275,0
    z"
/>
<!--N Orb-->
<circle id="c"
    cx="500" cy="135" r="78"
/>

<!--SE Orb-->
<use xlink:href="#c"
    transform="rotate(120, 500, 433)"
/>

<!--SW Orb-->
<use xlink:href="#c"
    transform="rotate(240, 500, 433)"
/>

</svg>